<svg t="1655451669766" viewBox="0 0 1024 1024" version="1.1" xmlns="http://www.w3.org/2000/svg" p-id="993" width="200" height="200"><path d="M474.112 474.112H301.056c-10.24 0-19.456 8.192-19.456 18.432v147.456h-57.344c-10.24 0-19.456 9.216-19.456 19.456v140.288c0 10.24 9.216 19.456 19.456 19.456h191.488c10.24 0 19.456-9.216 19.456-19.456V659.456c0-10.24-9.216-19.456-19.456-19.456H358.4v-89.088h307.2v89.088h-57.344c-10.24 0-19.456 9.216-19.456 19.456v140.288c0 10.24 9.216 19.456 19.456 19.456h192.512c10.24 0 18.432-9.216 18.432-19.456V659.456c0-10.24-8.192-19.456-18.432-19.456h-58.368V492.544c0-10.24-9.216-18.432-19.456-18.432H550.912v-90.112h57.344c10.24 0 18.432-9.216 18.432-19.456V224.256c0-10.24-8.192-19.456-18.432-19.456H415.744c-10.24 0-19.456 9.216-19.456 19.456v140.288c0 10.24 9.216 19.456 19.456 19.456h58.368v90.112z" p-id="994"></path></svg>
